<?xml version="1.0" encoding="UTF-8" standalone="no"?>
<svg
   xmlns:dc="http://purl.org/dc/elements/1.1/"
   xmlns:cc="http://creativecommons.org/ns#"
   xmlns:rdf="http://www.w3.org/1999/02/22-rdf-syntax-ns#"
   xmlns:svg="http://www.w3.org/2000/svg"
   xmlns="http://www.w3.org/2000/svg"
   xmlns:sodipodi="http://sodipodi.sourceforge.net/DTD/sodipodi-0.dtd"
   xmlns:inkscape="http://www.inkscape.org/namespaces/inkscape"
   version="1.1"
   x="0"
   y="0"
   width="592.48352"
   height="1049.208"
   viewBox="0 0 592.48352 1049.208"
   id="svg20501"
   sodipodi:docname="cupramen-0000520yldztq.svg"
   inkscape:version="0.92.4 (5da689c313, 2019-01-14)">
  <metadata
     id="metadata20507">
    <rdf:RDF>
      <cc:Work
         rdf:about="">
        <dc:format>image/svg+xml</dc:format>
        <dc:type
           rdf:resource="http://purl.org/dc/dcmitype/StillImage" />
        <dc:title></dc:title>
      </cc:Work>
    </rdf:RDF>
  </metadata>
  <defs
     id="defs20505" />
  <sodipodi:namedview
     pagecolor="#ffffff"
     bordercolor="#666666"
     borderopacity="1"
     objecttolerance="10"
     gridtolerance="10"
     guidetolerance="10"
     inkscape:pageopacity="0"
     inkscape:pageshadow="2"
     inkscape:window-width="1768"
     inkscape:window-height="1004"
     id="namedview20503"
     showgrid="false"
     inkscape:pagecheckerboard="true"
     fit-margin-top="0"
     fit-margin-left="0"
     fit-margin-right="0"
     fit-margin-bottom="0"
     inkscape:zoom="0.53166667"
     inkscape:cx="296.242"
     inkscape:cy="524.604"
     inkscape:window-x="0"
     inkscape:window-y="23"
     inkscape:window-maximized="0"
     inkscape:current-layer="svg20501" />
  <g
     id="レイヤー_1"
     transform="translate(-503.758,-75.396)">
    <g
       id="g20498">
      <path
         d="M 1084.632,517.37 H 534.208 l 51.447,479.632 h 1.708 c -0.011,0.516 -0.035,1.029 -0.035,1.546 0,68.79 99.434,124.556 222.091,124.556 122.658,0 222.091,-55.766 222.091,-124.556 0,-0.517 -0.023,-1.03 -0.035,-1.546 h 2.697 z"
         id="path20308"
         inkscape:connector-curvature="0"
         style="fill:#ffffff" />
      <path
         d="M 1084.632,517.37 H 534.208 l 51.447,479.632 h 1.708 c -0.011,0.516 -0.035,1.029 -0.035,1.546 0,68.79 99.434,124.556 222.091,124.556 122.658,0 222.091,-55.766 222.091,-124.556 0,-0.517 -0.023,-1.03 -0.035,-1.546 h 2.697 z"
         id="path20310"
         inkscape:connector-curvature="0"
         style="fill-opacity:0;stroke:#5b5a59;stroke-width:3" />
      <path
         d="m 1086.352,530.288 c 0,84.767 -122.528,153.485 -273.674,153.485 -151.146,0 -273.674,-68.718 -273.674,-153.485 0,-84.767 122.528,-153.485 273.674,-153.485 151.146,0 273.674,68.718 273.674,153.485"
         id="path20312"
         inkscape:connector-curvature="0"
         style="fill:#ffffff" />
      <path
         d="m 1086.352,530.288 c 0,84.767 -122.528,153.485 -273.674,153.485 -151.146,0 -273.674,-68.718 -273.674,-153.485 0,-84.767 122.528,-153.485 273.674,-153.485 151.146,0 273.674,68.718 273.674,153.485 z"
         id="path20314"
         inkscape:connector-curvature="0"
         style="fill-opacity:0;stroke:#5b5a59;stroke-width:0.81199998" />
      <path
         d="m 622.072,634.246 c 50.162,28.134 117.083,43.627 188.435,43.627 71.351,0 138.272,-15.493 188.434,-43.627 34.275,-19.222 57.6,-42.609 68.253,-67.826 10e-4,-0.196 0.014,-0.39 0.014,-0.586 0,-73.354 -114.929,-132.818 -256.701,-132.818 -141.773,0 -256.702,59.464 -256.702,132.818 0,0.196 0.013,0.391 0.015,0.586 10.652,25.218 33.977,48.604 68.252,67.826"
         id="path20316"
         inkscape:connector-curvature="0"
         style="fill:#985416" />
      <path
         d="m 948.112,615.916 c 0,0 -31.135,-112.907 -99.815,-123.196 -68.681,-10.289 -77.801,90.62 -77.801,90.62 0,0 -8.158,60.257 -45.878,34.769 -37.72,-25.488 -11.877,-69.554 -40.195,-90.857 -28.319,-21.302 -29.06,5.083 -42.861,16.833 -13.8,11.749 -16.263,9.897 -24.361,-8.704"
         id="path20318"
         inkscape:connector-curvature="0"
         style="fill-opacity:0;stroke:#facc46;stroke-width:6.4000001;stroke-linecap:round" />
      <path
         d="m 948.112,615.916 c 0,0 -31.135,-112.907 -99.815,-123.196 -68.681,-10.289 -77.801,90.62 -77.801,90.62 0,0 -8.158,60.257 -45.878,34.769 -37.72,-25.488 -11.877,-69.554 -40.195,-90.857 -28.319,-21.302 -29.06,5.083 -42.861,16.833 -13.8,11.749 -16.263,9.897 -24.361,-8.704"
         id="path20320"
         inkscape:connector-curvature="0"
         style="fill-opacity:0;stroke:#f9f199;stroke-width:4.5710001" />
      <path
         d="m 640.155,544.936 c 0,0 -15.106,67.75 18.04,92.01 33.145,24.26 66.017,-26.142 66.017,-26.142 0,0 21.05,-29.352 33.732,-5.628 12.682,23.725 -13.134,39.73 -4.217,58.678 8.918,18.948 16.651,5.317 27.158,2.948 10.506,-2.37 11.282,-0.722 10.35,11.255"
         id="path20322"
         inkscape:connector-curvature="0"
         style="fill-opacity:0;stroke:#facc46;stroke-width:6.4000001;stroke-linecap:round" />
      <path
         d="m 640.155,544.936 c 0,0 -15.106,67.75 18.04,92.01 33.145,24.26 66.017,-26.142 66.017,-26.142 0,0 21.05,-29.352 33.732,-5.628 12.682,23.725 -13.134,39.73 -4.217,58.678 8.918,18.948 16.651,5.317 27.158,2.948 10.506,-2.37 11.282,-0.722 10.35,11.255"
         id="path20324"
         inkscape:connector-curvature="0"
         style="fill-opacity:0;stroke:#f9f199;stroke-width:4.5710001" />
      <path
         d="m 981.139,569.674 c 0,0 1.224,-75.23 -39.293,-93.845 -40.518,-18.615 -64.408,42.023 -64.408,42.023 0,0 -15.941,35.724 -34.602,13.26 -18.664,-22.464 5.26,-45.04 -8.359,-63.242 -13.618,-18.202 -18.852,-2.054 -29.493,2.732 -10.643,4.785 -11.828,3.202 -13.458,-9.722"
         id="path20326"
         inkscape:connector-curvature="0"
         style="fill-opacity:0;stroke:#facc46;stroke-width:6.4000001;stroke-linecap:round" />
      <path
         d="m 981.139,569.674 c 0,0 1.224,-75.23 -39.293,-93.845 -40.518,-18.615 -64.408,42.023 -64.408,42.023 0,0 -15.941,35.724 -34.602,13.26 -18.664,-22.464 5.26,-45.04 -8.359,-63.242 -13.618,-18.202 -18.852,-2.054 -29.493,2.732 -10.643,4.785 -11.828,3.202 -13.458,-9.722"
         id="path20328"
         inkscape:connector-curvature="0"
         style="fill-opacity:0;stroke:#f9f199;stroke-width:4.5710001" />
      <path
         d="m 688.829,465.302 c 41.195,10.45 -107.03,117.463 -63.556,146.06 70.005,46.047 123.212,-75.811 123.212,-75.811 0,0 31.766,-66.376 65.724,-23.213 33.957,43.162 -102.828,111.294 -78.139,146.193 24.689,34.899 68.416,1.215 88.666,-7.254 20.25,-8.469 79.991,-28.727 82.407,-4.346"
         id="path20330"
         inkscape:connector-curvature="0"
         style="fill-opacity:0;stroke:#facc46;stroke-width:6.4000001;stroke-linecap:round" />
      <path
         d="m 688.829,465.302 c 41.195,10.45 -107.03,117.463 -63.556,146.06 70.005,46.047 123.212,-75.811 123.212,-75.811 0,0 31.766,-66.376 65.724,-23.213 33.957,43.162 -102.828,111.294 -78.139,146.193 24.689,34.899 68.416,1.215 88.666,-7.254 20.25,-8.469 79.991,-28.727 82.407,-4.346"
         id="path20332"
         inkscape:connector-curvature="0"
         style="fill-opacity:0;stroke:#f9f199;stroke-width:4.5710001" />
      <path
         d="m 948.063,652.254 c 2.716,1.805 -109.318,-35.705 -69.202,-88.319 39.46,-51.753 -97.634,-11.024 -97.524,-11.045 0,0 -35.24,94.459 -44.267,56.525 -9.026,-37.934 30.195,-61.959 24.582,-92.2 -5.613,-30.24 -20.226,-9.13 -34.844,-5.878 -14.618,3.253 -83.098,23.692 -77.987,4.876"
         id="path20334"
         inkscape:connector-curvature="0"
         style="fill-opacity:0;stroke:#facc46;stroke-width:6.4000001;stroke-linecap:round" />
      <path
         d="m 948.063,652.254 c 2.716,1.805 -109.318,-35.705 -69.202,-88.319 39.46,-51.753 -97.634,-11.024 -97.524,-11.045 0,0 -35.24,94.459 -44.267,56.525 -9.026,-37.934 30.195,-61.959 24.582,-92.2 -5.613,-30.24 -20.226,-9.13 -34.844,-5.878 -14.618,3.253 -83.098,23.692 -77.987,4.876"
         id="path20336"
         inkscape:connector-curvature="0"
         style="fill-opacity:0;stroke:#f9f199;stroke-width:4.5710001" />
      <path
         d="m 666.948,602.447 c 0,0 49.242,-8.457 114.419,50.24 54.868,49.412 72.347,-90.766 72.347,-90.766 0,0 4.175,-37.466 45.164,-35.366 40.987,2.1 17.294,36.137 48.219,38.963 30.927,2.826 52.906,25.149 66.4,13.767 13.493,-11.383 -6.909,-48.921 2.828,-40.9"
         id="path20338"
         inkscape:connector-curvature="0"
         style="fill-opacity:0;stroke:#facc46;stroke-width:6.4000001;stroke-linecap:round" />
      <path
         d="m 666.948,602.447 c 0,0 49.242,-8.457 114.419,50.24 54.868,49.412 72.347,-90.766 72.347,-90.766 0,0 4.175,-37.466 45.164,-35.366 40.987,2.1 17.294,36.137 48.219,38.963 30.927,2.826 52.906,25.149 66.4,13.767 13.493,-11.383 -6.909,-48.921 2.828,-40.9"
         id="path20340"
         inkscape:connector-curvature="0"
         style="fill-opacity:0;stroke:#f9f199;stroke-width:4.5710001" />
      <path
         d="m 779.497,498.661 c 0,0 -36.58,102.624 -3.435,126.884 33.146,24.26 39.956,-60.324 39.956,-60.324 0,0 68.586,-30.044 81.268,-6.32 12.682,23.725 31.267,-4.364 40.185,14.583 8.917,18.948 -27.751,49.412 -17.244,47.043 10.506,-2.37 11.282,-0.722 10.35,11.255"
         id="path20342"
         inkscape:connector-curvature="0"
         style="fill-opacity:0;stroke:#facc46;stroke-width:6.4000001;stroke-linecap:round" />
      <path
         d="m 779.497,498.661 c 0,0 -36.58,102.624 -3.435,126.884 33.146,24.26 39.956,-60.324 39.956,-60.324 0,0 68.586,-30.044 81.268,-6.32 12.682,23.725 31.267,-4.364 40.185,14.583 8.917,18.948 -27.751,49.412 -17.244,47.043 10.506,-2.37 11.282,-0.722 10.35,11.255"
         id="path20344"
         inkscape:connector-curvature="0"
         style="fill-opacity:0;stroke:#f9f199;stroke-width:4.5710001" />
      <path
         d="m 758.093,464.502 c 0,0 -15.106,67.75 18.04,92.01 33.145,24.26 66.017,-26.142 66.017,-26.142 0,0 21.05,-29.352 33.732,-5.628 12.682,23.725 -13.134,39.73 -4.217,58.678 8.918,18.948 16.651,5.317 27.158,2.948 10.506,-2.37 11.282,-0.722 10.35,11.255"
         id="path20346"
         inkscape:connector-curvature="0"
         style="fill-opacity:0;stroke:#facc46;stroke-width:6.4000001;stroke-linecap:round" />
      <path
         d="m 758.093,464.502 c 0,0 -15.106,67.75 18.04,92.01 33.145,24.26 66.017,-26.142 66.017,-26.142 0,0 21.05,-29.352 33.732,-5.628 12.682,23.725 -13.134,39.73 -4.217,58.678 8.918,18.948 16.651,5.317 27.158,2.948 10.506,-2.37 11.282,-0.722 10.35,11.255"
         id="path20348"
         inkscape:connector-curvature="0"
         style="fill-opacity:0;stroke:#f9f199;stroke-width:4.5710001" />
      <path
         d="m 758.093,464.502 c 0,0 -14.476,66.923 18.04,92.01 31.5,24.304 63.823,-26.084 66.017,-26.142 0,0 21.05,-29.352 33.732,-5.628 12.682,23.725 -13.134,39.73 -4.217,58.678 8.918,18.948 16.651,5.317 27.158,2.948 10.506,-2.37 11.282,-0.722 10.35,11.255"
         id="path20350"
         inkscape:connector-curvature="0"
         style="fill-opacity:0;stroke:#facc46;stroke-width:6.4000001;stroke-linecap:round" />
      <path
         d="m 758.093,464.502 c 0,0 -14.476,66.923 18.04,92.01 31.5,24.304 63.823,-26.084 66.017,-26.142 0,0 21.05,-29.352 33.732,-5.628 12.682,23.725 -13.134,39.73 -4.217,58.678 8.918,18.948 16.651,5.317 27.158,2.948 10.506,-2.37 11.282,-0.722 10.35,11.255"
         id="path20352"
         inkscape:connector-curvature="0"
         style="fill-opacity:0;stroke:#f9f199;stroke-width:4.5710001" />
      <path
         d="m 776.559,528.293 c 0,0 -15.106,67.75 18.04,92.01 33.145,24.26 66.017,-26.142 66.017,-26.142 0,0 21.05,-29.352 33.732,-5.628 12.682,23.725 -13.134,39.73 -4.217,58.678 8.918,18.948 16.651,5.317 27.158,2.948 10.506,-2.37 11.282,-0.722 10.35,11.255"
         id="path20354"
         inkscape:connector-curvature="0"
         style="fill-opacity:0;stroke:#facc46;stroke-width:6.4000001;stroke-linecap:round" />
      <path
         d="m 776.559,528.293 c 0,0 -15.106,67.75 18.04,92.01 33.145,24.26 66.017,-26.142 66.017,-26.142 0,0 21.05,-29.352 33.732,-5.628 12.682,23.725 -13.134,39.73 -4.217,58.678 8.918,18.948 16.651,5.317 27.158,2.948 10.506,-2.37 11.282,-0.722 10.35,11.255"
         id="path20356"
         inkscape:connector-curvature="0"
         style="fill-opacity:0;stroke:#f9f199;stroke-width:4.5710001" />
      <path
         d="m 653.528,476.551 c 0,0 -22.5,101.873 28.167,138.636 50.668,36.764 100.358,-38.863 100.358,-38.863 0,0 31.843,-44.027 51.337,-8.221 19.495,35.807 -19.708,59.709 -5.982,88.297 13.725,28.588 25.401,8.127 41.386,4.638 15.985,-3.489 17.179,-1.003 15.85,17.019"
         id="path20358"
         inkscape:connector-curvature="0"
         style="fill-opacity:0;stroke:#facc46;stroke-width:6.4000001;stroke-linecap:round" />
      <path
         d="m 653.528,476.551 c 0,0 -22.5,101.873 28.167,138.636 50.668,36.764 100.358,-38.863 100.358,-38.863 0,0 31.843,-44.027 51.337,-8.221 19.495,35.807 -19.708,59.709 -5.982,88.297 13.725,28.588 25.401,8.127 41.386,4.638 15.985,-3.489 17.179,-1.003 15.85,17.019"
         id="path20360"
         inkscape:connector-curvature="0"
         style="fill-opacity:0;stroke:#f9f199;stroke-width:4.5710001" />
      <path
         d="m 709.691,496.99 c 0,0 44.006,53.892 83.746,43.202 39.74,-10.69 20.459,-67.609 20.459,-67.609 0,0 -10.042,-34.631 16.547,-29.737 26.589,4.894 23.146,34.929 43.628,39.779 20.482,4.85 14.549,-9.643 19.216,-19.289 4.668,-9.646 6.449,-9.224 15.31,-1.049"
         id="path20362"
         inkscape:connector-curvature="0"
         style="fill-opacity:0;stroke:#facc46;stroke-width:6.4000001;stroke-linecap:round" />
      <path
         d="m 709.691,496.99 c 0,0 44.006,53.892 83.746,43.202 39.74,-10.69 20.459,-67.609 20.459,-67.609 0,0 -10.042,-34.631 16.547,-29.737 26.589,4.894 23.146,34.929 43.628,39.779 20.482,4.85 14.549,-9.643 19.216,-19.289 4.668,-9.646 6.449,-9.224 15.31,-1.049"
         id="path20364"
         inkscape:connector-curvature="0"
         style="fill-opacity:0;stroke:#f9f199;stroke-width:4.5710001" />
      <path
         d="m 1009.85,599.533 c 0,0 20.713,-66.271 -10.292,-93.179 -31.005,-26.908 -67.973,20.611 -67.973,20.611 0,0 -23.43,27.515 -34.087,2.827 -10.656,-24.688 16.408,-38.51 9.104,-58.127 -7.305,-19.618 -16.15,-6.672 -26.818,-5.176 -10.668,1.495 -11.303,-0.21 -9.374,-12.07"
         id="path20366"
         inkscape:connector-curvature="0"
         style="fill-opacity:0;stroke:#facc46;stroke-width:6.4000001;stroke-linecap:round" />
      <path
         d="m 1009.85,599.533 c 0,0 20.713,-66.271 -10.292,-93.179 -31.005,-26.908 -67.973,20.611 -67.973,20.611 0,0 -23.43,27.515 -34.087,2.827 -10.656,-24.688 16.408,-38.51 9.104,-58.127 -7.305,-19.618 -16.15,-6.672 -26.818,-5.176 -10.668,1.495 -11.303,-0.21 -9.374,-12.07"
         id="path20368"
         inkscape:connector-curvature="0"
         style="fill-opacity:0;stroke:#f9f199;stroke-width:4.5710001" />
      <path
         d="m 847.344,493.358 c 0,0 -44.178,-53.753 -83.883,-42.938 -39.706,10.814 -20.243,67.672 -20.243,67.672 0,0 10.152,34.599 -16.453,29.789 -26.604,-4.81 -23.257,-34.856 -43.754,-39.641 -20.498,-4.786 -14.518,9.688 -19.155,19.349 -4.637,9.661 -6.419,9.244 -15.306,1.097"
         id="path20370"
         inkscape:connector-curvature="0"
         style="fill-opacity:0;stroke:#facc46;stroke-width:6.4000001;stroke-linecap:round" />
      <path
         d="m 847.344,493.358 c 0,0 -44.178,-53.753 -83.883,-42.938 -39.706,10.814 -20.243,67.672 -20.243,67.672 0,0 10.152,34.599 -16.453,29.789 -26.604,-4.81 -23.257,-34.856 -43.754,-39.641 -20.498,-4.786 -14.518,9.688 -19.155,19.349 -4.637,9.661 -6.419,9.244 -15.306,1.097"
         id="path20372"
         inkscape:connector-curvature="0"
         style="fill-opacity:0;stroke:#f9f199;stroke-width:4.5710001" />
      <path
         d="m 762.172,592.902 c 0,0 13.82,68.02 54.018,76.861 40.197,8.841 49.695,-50.468 49.695,-50.468 0,0 7.275,-35.307 28.545,-18.72 21.271,16.587 4.195,41.609 20.075,55.344 15.881,13.734 17.392,-1.84 26.032,-8.234 8.639,-6.395 10.02,-5.201 14.053,6.125"
         id="path20374"
         inkscape:connector-curvature="0"
         style="fill-opacity:0;stroke:#facc46;stroke-width:6.4000001;stroke-linecap:round" />
      <path
         d="m 762.172,592.902 c 0,0 13.82,68.02 54.018,76.861 40.197,8.841 49.695,-50.468 49.695,-50.468 0,0 7.275,-35.307 28.545,-18.72 21.271,16.587 4.195,41.609 20.075,55.344 15.881,13.734 17.392,-1.84 26.032,-8.234 8.639,-6.395 10.02,-5.201 14.053,6.125"
         id="path20376"
         inkscape:connector-curvature="0"
         style="fill-opacity:0;stroke:#f9f199;stroke-width:4.5710001" />
      <path
         d="m 782.656,495.019 c 0,0 26.299,65.268 59.444,89.528 33.146,24.259 66.017,-26.142 66.017,-26.142 0,0 62.517,-59.961 75.199,-36.236 12.682,23.725 -54.601,70.338 -45.683,89.286 8.918,18.947 16.651,5.317 27.157,2.947 10.507,-2.369 44.54,-55.774 43.608,-43.797"
         id="path20378"
         inkscape:connector-curvature="0"
         style="fill-opacity:0;stroke:#facc46;stroke-width:6.4000001;stroke-linecap:round" />
      <path
         d="m 782.656,495.019 c 0,0 26.299,65.268 59.444,89.528 33.146,24.259 66.017,-26.142 66.017,-26.142 0,0 62.517,-59.961 75.199,-36.236 12.682,23.725 -54.601,70.338 -45.683,89.286 8.918,18.947 16.651,5.317 27.157,2.947 10.507,-2.369 44.54,-55.774 43.608,-43.797"
         id="path20380"
         inkscape:connector-curvature="0"
         style="fill-opacity:0;stroke:#f9f199;stroke-width:4.5710001" />
      <path
         d="m 962.402,647.82 c 0,0 9.872,-32.483 -4.098,-70.954 -13.97,-38.472 -28.897,-30.22 -28.897,-30.22 0,0 -33.927,12.769 -31.188,-13.955 2.739,-26.724 33.156,-25.767 36.35,-46.441 3.194,-20.674 -10.863,-13.617 -20.922,-17.45 -10.059,-3.834 -49.479,39.609 -42,30.168"
         id="path20382"
         inkscape:connector-curvature="0"
         style="fill-opacity:0;stroke:#facc46;stroke-width:6.4000001;stroke-linecap:round" />
      <path
         d="m 962.402,647.82 c 0,0 9.872,-32.483 -4.098,-70.954 -13.97,-38.472 -28.897,-30.22 -28.897,-30.22 0,0 -33.927,12.769 -31.188,-13.955 2.739,-26.724 33.156,-25.767 36.35,-46.441 3.194,-20.674 -10.863,-13.617 -20.922,-17.45 -10.059,-3.834 -49.479,39.609 -42,30.168"
         id="path20384"
         inkscape:connector-curvature="0"
         style="fill-opacity:0;stroke:#f9f199;stroke-width:4.5710001" />
      <path
         d="m 737.024,498.503 c 0,0 -95.333,58.3 -62.187,82.56 33.145,24.259 66.017,-26.142 66.017,-26.142 0,0 21.051,-29.352 33.732,-5.628 12.682,23.725 -13.134,39.73 -4.217,58.678 8.918,18.947 16.651,5.317 27.158,2.947 10.506,-2.369 53.96,-8.109 53.028,3.869"
         id="path20386"
         inkscape:connector-curvature="0"
         style="fill-opacity:0;stroke:#facc46;stroke-width:6.4000001;stroke-linecap:round" />
      <path
         d="m 737.024,498.503 c 0,0 -95.333,58.3 -62.187,82.56 33.145,24.259 66.017,-26.142 66.017,-26.142 0,0 21.051,-29.352 33.732,-5.628 12.682,23.725 -13.134,39.73 -4.217,58.678 8.918,18.947 16.651,5.317 27.158,2.947 10.506,-2.369 53.96,-8.109 53.028,3.869"
         id="path20388"
         inkscape:connector-curvature="0"
         style="fill-opacity:0;stroke:#f9f199;stroke-width:4.5710001" />
      <path
         d="m 847.344,561.308 c -29.659,14.689 2.567,-123.887 -37.782,-118.799 -64.971,8.193 -33.557,107.399 -33.557,107.399 0,0 15.47,55.45 -26.773,47.079 -42.244,-8.371 3.268,-118.1 -29.257,-126.271 -32.526,-8.171 -40.943,33.963 -48.513,49.248 -7.571,15.286 -32.341,57.58 -46.323,44.352"
         id="path20390"
         inkscape:connector-curvature="0"
         style="fill-opacity:0;stroke:#facc46;stroke-width:6.4000001;stroke-linecap:round" />
      <path
         d="m 847.344,561.308 c -29.659,14.689 2.567,-123.887 -37.782,-118.799 -64.971,8.193 -33.557,107.399 -33.557,107.399 0,0 15.47,55.45 -26.773,47.079 -42.244,-8.371 3.268,-118.1 -29.257,-126.271 -32.526,-8.171 -40.943,33.963 -48.513,49.248 -7.571,15.286 -32.341,57.58 -46.323,44.352"
         id="path20392"
         inkscape:connector-curvature="0"
         style="fill-opacity:0;stroke:#f9f199;stroke-width:4.5710001" />
      <path
         d="m 637.573,499.5 c 27.772,7.268 -42.25,66.605 -13.141,87.273 46.873,33.28 62.546,-26.581 62.546,-26.581 0,0 72.673,-19.449 96.338,11.249 26.67,34.594 -130.172,46.475 -115.957,70.481 15.44,26.075 63.399,36.765 77.205,30.272 13.807,-6.493 37.394,-58.784 38.752,-40.774"
         id="path20394"
         inkscape:connector-curvature="0"
         style="fill-opacity:0;stroke:#facc46;stroke-width:6.4000001;stroke-linecap:round" />
      <path
         d="m 637.573,499.5 c 27.772,7.268 -42.25,66.605 -13.141,87.273 46.873,33.28 62.546,-26.581 62.546,-26.581 0,0 72.673,-19.449 96.338,11.249 26.67,34.594 -130.172,46.475 -115.957,70.481 15.44,26.075 63.399,36.765 77.205,30.272 13.807,-6.493 37.394,-58.784 38.752,-40.774"
         id="path20396"
         inkscape:connector-curvature="0"
         style="fill-opacity:0;stroke:#f9f199;stroke-width:4.5710001" />
      <path
         d="m 846.916,462.606 c 33.485,8.407 -86.356,92 -50.94,114.702 57.027,36.556 99.675,-59.139 99.675,-59.139 0,0 25.491,-52.113 53.246,-17.986 27.755,34.127 -82.972,87.161 -62.777,114.743 20.195,27.581 55.539,1.256 71.939,-5.322 16.399,-6.579 64.802,-22.264 66.871,-3.06"
         id="path20398"
         inkscape:connector-curvature="0"
         style="fill-opacity:0;stroke:#facc46;stroke-width:6.4000001;stroke-linecap:round" />
      <path
         d="m 846.916,462.606 c 33.485,8.407 -86.356,92 -50.94,114.702 57.027,36.556 99.675,-59.139 99.675,-59.139 0,0 25.491,-52.113 53.246,-17.986 27.755,34.127 -82.972,87.161 -62.777,114.743 20.195,27.581 55.539,1.256 71.939,-5.322 16.399,-6.579 64.802,-22.264 66.871,-3.06"
         id="path20400"
         inkscape:connector-curvature="0"
         style="fill-opacity:0;stroke:#f9f199;stroke-width:4.5710001" />
      <path
         d="m 798.165,500.321 c -19.358,23.235 -25.658,-66.09 -55.538,-45.252 -49.265,34.356 -3.469,65.672 -3.314,65.126 0,0 7.409,-16.012 -27.867,-5.493 -35.275,10.52 -9.215,-39.794 -36.829,-33.024 -27.614,6.769 -33.56,47.139 -25.03,57.441 6.781,8.19 -13.291,56.24 -24.604,52.788"
         id="path20402"
         inkscape:connector-curvature="0"
         style="fill-opacity:0;stroke:#facc46;stroke-width:6.4000001;stroke-linecap:round" />
      <path
         d="m 798.165,500.321 c -19.358,23.235 -25.658,-66.09 -55.538,-45.252 -49.265,34.356 -3.469,65.672 -3.314,65.126 0,0 7.409,-16.012 -27.867,-5.493 -35.275,10.52 -9.215,-39.794 -36.829,-33.024 -27.614,6.769 -33.56,47.139 -25.03,57.441 6.781,8.19 -13.291,56.24 -24.604,52.788"
         id="path20404"
         inkscape:connector-curvature="0"
         style="fill-opacity:0;stroke:#f9f199;stroke-width:4.5710001" />
      <path
         d="m 756.157,543.178 c -18.616,16.957 -21.989,-89.404 -50.181,-77.018 -45.397,19.944 -3.591,84.29 -3.591,84.29 0,0 21.858,36.417 -10.295,39.56 -32.153,3.144 -20.368,-85.405 -45.456,-84.223 -25.088,1.183 -23.064,33.223 -25.596,45.825 -2.531,12.602 -12.299,48.297 -24.954,41.838"
         id="path20406"
         inkscape:connector-curvature="0"
         style="fill-opacity:0;stroke:#facc46;stroke-width:6.4000001;stroke-linecap:round" />
      <path
         d="m 756.157,543.178 c -18.616,16.957 -21.989,-89.404 -50.181,-77.018 -45.397,19.944 -3.591,84.29 -3.591,84.29 0,0 21.858,36.417 -10.295,39.56 -32.153,3.144 -20.368,-85.405 -45.456,-84.223 -25.088,1.183 -23.064,33.223 -25.596,45.825 -2.531,12.602 -12.299,48.297 -24.954,41.838"
         id="path20408"
         inkscape:connector-curvature="0"
         style="fill-opacity:0;stroke:#f9f199;stroke-width:4.5710001" />
      <path
         d="m 1086.352,530.288 c 0,84.767 -122.528,153.485 -273.674,153.485 -151.146,0 -273.674,-68.718 -273.674,-153.485 0,-84.767 122.528,-153.485 273.674,-153.485 151.146,0 273.674,68.718 273.674,153.485 z"
         id="path20410"
         inkscape:connector-curvature="0"
         style="fill-opacity:0;stroke:#5b5a59;stroke-width:19.77899933" />
      <path
         d="m 1086.352,530.288 c 0,84.767 -122.528,153.485 -273.674,153.485 -151.146,0 -273.674,-68.718 -273.674,-153.485 0,-84.767 122.528,-153.485 273.674,-153.485 151.146,0 273.674,68.718 273.674,153.485 z"
         id="path20412"
         inkscape:connector-curvature="0"
         style="fill-opacity:0;stroke:#ffffff;stroke-width:16.48200035" />
      <path
         d="m 817.669,368.522 c -3.424,-0.07 -6.858,-0.118 -10.312,-0.118 -155.082,0 -280.801,71.196 -280.801,159.021 0,55.96 53.048,113.162 130.203,141.503 122.422,-44.18 153.757,-244.763 160.91,-300.406"
         id="path20414"
         inkscape:connector-curvature="0"
         style="fill:#ee5d35" />
      <path
         d="m 817.669,368.522 c -3.424,-0.07 -6.858,-0.118 -10.312,-0.118 -155.082,0 -280.801,71.196 -280.801,159.021 0,55.96 53.048,113.162 130.203,141.503 122.422,-44.18 153.757,-244.763 160.91,-300.406 z"
         id="path20416"
         inkscape:connector-curvature="0"
         style="fill-opacity:0;stroke:#5b5a59;stroke-width:2" />
      <path
         d="m 1028.529,542.233 c -1.357,0 -2.675,0.167 -3.937,0.477 -1.213,-7.906 -8.044,-13.961 -16.289,-13.961 -0.538,0 -1.069,0.028 -1.594,0.078 -0.907,-6.779 -8.231,-12.063 -17.133,-12.063 -9.516,0 -17.229,6.037 -17.229,13.483 0,1.295 0.237,2.545 0.672,3.729 -4.818,1.065 -8.84,3.224 -11.351,6.018 -8.176,1.841 -14.042,6.842 -14.042,12.726 0,5.912 5.921,10.932 14.157,12.752 -0.435,1.184 -0.673,2.434 -0.673,3.729 0,7.446 7.714,13.483 17.229,13.483 6.14,0 11.526,-2.515 14.577,-6.299 1.593,6.158 8.547,10.794 16.886,10.794 8.902,0 16.226,-5.285 17.133,-12.064 0.525,0.051 1.056,0.078 1.594,0.078 9.102,0 16.48,-7.378 16.48,-16.48 0,-9.102 -7.378,-16.48 -16.48,-16.48"
         id="path20418"
         inkscape:connector-curvature="0"
         style="fill:#f6dc1c" />
      <path
         d="m 1028.529,542.233 c -1.357,0 -2.675,0.167 -3.937,0.477 -1.213,-7.906 -8.044,-13.961 -16.289,-13.961 -0.538,0 -1.069,0.028 -1.594,0.078 -0.907,-6.779 -8.231,-12.063 -17.133,-12.063 -9.516,0 -17.229,6.037 -17.229,13.483 0,1.295 0.237,2.545 0.672,3.729 -4.818,1.065 -8.84,3.224 -11.351,6.018 -8.176,1.841 -14.042,6.842 -14.042,12.726 0,5.912 5.921,10.932 14.157,12.752 -0.435,1.184 -0.673,2.434 -0.673,3.729 0,7.446 7.714,13.483 17.229,13.483 6.14,0 11.526,-2.515 14.577,-6.299 1.593,6.158 8.547,10.794 16.886,10.794 8.902,0 16.226,-5.285 17.133,-12.064 0.525,0.051 1.056,0.078 1.594,0.078 9.102,0 16.48,-7.378 16.48,-16.48 0,-9.102 -7.378,-16.48 -16.48,-16.48 z"
         id="path20420"
         inkscape:connector-curvature="0"
         style="fill-opacity:0;stroke:#f1af1c;stroke-width:1.49800003" />
      <path
         d="m 765.291,621.217 c -1.239,0 -2.442,0.153 -3.594,0.435 -1.107,-7.216 -7.342,-12.743 -14.868,-12.743 -0.491,0 -0.976,0.025 -1.455,0.071 -0.828,-6.188 -7.513,-11.012 -15.64,-11.012 -8.686,0 -15.727,5.511 -15.727,12.308 0,1.182 0.217,2.323 0.614,3.404 -4.397,0.972 -8.069,2.943 -10.361,5.493 -7.463,1.681 -12.818,6.246 -12.818,11.617 0,5.396 5.405,9.978 12.923,11.639 -0.397,1.082 -0.615,2.223 -0.615,3.404 0,6.798 7.042,12.308 15.728,12.308 5.604,0 10.52,-2.296 13.305,-5.749 1.455,5.621 7.802,9.852 15.413,9.852 8.127,0 14.812,-4.824 15.64,-11.012 0.479,0.046 0.964,0.071 1.455,0.071 8.308,0 15.043,-6.735 15.043,-15.043 0,-8.308 -6.735,-15.043 -15.043,-15.043"
         id="path20422"
         inkscape:connector-curvature="0"
         style="fill:#f6dc1c" />
      <path
         d="m 765.291,621.217 c -1.239,0 -2.442,0.153 -3.594,0.435 -1.107,-7.216 -7.342,-12.743 -14.868,-12.743 -0.491,0 -0.976,0.025 -1.455,0.071 -0.828,-6.188 -7.513,-11.012 -15.64,-11.012 -8.686,0 -15.727,5.511 -15.727,12.308 0,1.182 0.217,2.323 0.614,3.404 -4.397,0.972 -8.069,2.943 -10.361,5.493 -7.463,1.681 -12.818,6.246 -12.818,11.617 0,5.396 5.405,9.978 12.923,11.639 -0.397,1.082 -0.615,2.223 -0.615,3.404 0,6.798 7.042,12.308 15.728,12.308 5.604,0 10.52,-2.296 13.305,-5.749 1.455,5.621 7.802,9.852 15.413,9.852 8.127,0 14.812,-4.824 15.64,-11.012 0.479,0.046 0.964,0.071 1.455,0.071 8.308,0 15.043,-6.735 15.043,-15.043 0,-8.308 -6.735,-15.043 -15.043,-15.043 z"
         id="path20424"
         inkscape:connector-curvature="0"
         style="fill-opacity:0;stroke:#f1af1c;stroke-width:1.36800003" />
      <path
         d="m 860.732,477.707 c 1.156,-0.579 2.208,-1.284 3.151,-2.087 4.408,6.22 12.812,8.464 19.839,4.945 0.458,-0.229 0.9,-0.48 1.325,-0.746 3.667,5.39 12.164,6.767 19.75,2.968 8.109,-4.062 12.106,-12.498 8.927,-18.844 -0.552,-1.103 -1.289,-2.067 -2.166,-2.891 3.653,-2.963 6.158,-6.52 7.106,-9.972 6.182,-5.058 9.045,-11.823 6.534,-16.838 -2.524,-5.038 -9.711,-6.788 -17.506,-4.824 -0.135,-1.195 -0.465,-2.362 -1.018,-3.465 -3.179,-6.346 -12.328,-8.198 -20.437,-4.137 -5.232,2.62 -8.748,7.062 -9.734,11.589 -3.985,-4.568 -11.891,-5.55 -18.995,-1.992 -7.588,3.8 -11.573,11.429 -9.453,17.593 -0.469,0.181 -0.933,0.384 -1.391,0.613 -7.757,3.885 -10.895,13.322 -7.01,21.078 3.885,7.756 13.322,10.895 21.078,7.01"
         id="path20426"
         inkscape:connector-curvature="0"
         style="fill:#f6dc1c" />
      <path
         d="m 860.732,477.707 c 1.156,-0.579 2.208,-1.284 3.151,-2.087 4.408,6.22 12.812,8.464 19.839,4.945 0.458,-0.229 0.9,-0.48 1.325,-0.746 3.667,5.39 12.164,6.767 19.75,2.968 8.109,-4.062 12.106,-12.498 8.927,-18.844 -0.552,-1.103 -1.289,-2.067 -2.166,-2.891 3.653,-2.963 6.158,-6.52 7.106,-9.972 6.182,-5.058 9.045,-11.823 6.534,-16.838 -2.524,-5.038 -9.711,-6.788 -17.506,-4.824 -0.135,-1.195 -0.465,-2.362 -1.018,-3.465 -3.179,-6.346 -12.328,-8.198 -20.437,-4.137 -5.232,2.62 -8.748,7.062 -9.734,11.589 -3.985,-4.568 -11.891,-5.55 -18.995,-1.992 -7.588,3.8 -11.573,11.429 -9.453,17.593 -0.469,0.181 -0.933,0.384 -1.391,0.613 -7.757,3.885 -10.895,13.322 -7.01,21.078 3.885,7.756 13.322,10.895 21.078,7.01 z"
         id="path20428"
         inkscape:connector-curvature="0"
         style="fill-opacity:0;stroke:#f1af1c;stroke-width:1.42799997" />
      <path
         d="m 994.151,606.065 -30.364,15.182 -12.944,-25.889 30.364,-15.182 z"
         id="path20430"
         inkscape:connector-curvature="0"
         style="fill:#336600" />
      <path
         d="m 825.377,630.148 -17.478,40.38 -27.98,-12.111 17.478,-40.38 z"
         id="path20432"
         inkscape:connector-curvature="0"
         style="fill:#336600" />
      <path
         d="m 866.872,606.695 -15.965,-17.062 19.738,-18.472 15.965,17.064 z"
         id="path20434"
         inkscape:connector-curvature="0"
         style="fill:#336600" />
      <path
         d="m 948.758,508.928 h -44 v -40 h 44 z"
         id="path20436"
         inkscape:connector-curvature="0"
         style="fill:#336600" />
      <path
         d="m 879.869,548.018 c -0.946,0 -1.864,0.117 -2.743,0.331 -0.845,-5.508 -5.604,-9.727 -11.349,-9.727 -0.375,0 -0.745,0.021 -1.111,0.055 -0.632,-4.724 -5.735,-8.406 -11.938,-8.406 -6.629,0 -12.004,4.207 -12.004,9.396 0,0.901 0.166,1.773 0.469,2.598 -3.357,0.742 -6.16,2.245 -7.909,4.193 -5.697,1.283 -9.784,4.766 -9.784,8.867 0,4.118 4.125,7.617 9.864,8.883 -0.303,0.826 -0.469,1.698 -0.469,2.599 0,5.188 5.374,9.395 12.004,9.395 4.278,0 8.031,-1.752 10.157,-4.388 1.11,4.29 5.955,7.519 11.765,7.519 6.202,0 11.306,-3.682 11.937,-8.404 0.366,0.035 0.736,0.053 1.111,0.053 6.342,0 11.483,-5.141 11.483,-11.482 0,-6.341 -5.141,-11.482 -11.483,-11.482"
         id="path20438"
         inkscape:connector-curvature="0"
         style="fill:#f6dc1c" />
      <path
         d="m 879.869,548.018 c -0.946,0 -1.864,0.117 -2.743,0.331 -0.845,-5.508 -5.604,-9.727 -11.349,-9.727 -0.375,0 -0.745,0.021 -1.111,0.055 -0.632,-4.724 -5.735,-8.406 -11.938,-8.406 -6.629,0 -12.004,4.207 -12.004,9.396 0,0.901 0.166,1.773 0.469,2.598 -3.357,0.742 -6.16,2.245 -7.909,4.193 -5.697,1.283 -9.784,4.766 -9.784,8.867 0,4.118 4.125,7.617 9.864,8.883 -0.303,0.826 -0.469,1.698 -0.469,2.599 0,5.188 5.374,9.395 12.004,9.395 4.278,0 8.031,-1.752 10.157,-4.388 1.11,4.29 5.955,7.519 11.765,7.519 6.202,0 11.306,-3.682 11.937,-8.404 0.366,0.035 0.736,0.053 1.111,0.053 6.342,0 11.483,-5.141 11.483,-11.482 0,-6.341 -5.141,-11.482 -11.483,-11.482 z"
         id="path20440"
         inkscape:connector-curvature="0"
         style="fill-opacity:0;stroke:#f1af1c;stroke-width:1.04400003" />
      <path
         d="m 943.207,622.408 c 0.171,3.976 -4.789,6.93 -6.659,10.501 -1.748,3.337 -1.001,8.995 -4.094,11.744 -2.841,2.524 -8.518,1.291 -12.151,3.134 -3.453,1.752 -5.716,7.087 -9.595,8.068 -3.809,0.963 -8.314,-2.641 -12.264,-2.567 -3.928,0.075 -8.493,3.684 -12.474,2.614 -3.865,-1.038 -6.088,-6.462 -9.622,-8.418 -3.574,-1.978 -9.373,-1.018 -12.223,-3.771 -2.973,-2.873 -2.087,-8.579 -3.839,-12.114 -1.794,-3.618 -6.837,-6.573 -6.884,-10.688 -0.047,-4.168 4.873,-7.203 6.503,-10.722 1.67,-3.605 0.788,-9.271 3.786,-11.957 2.914,-2.609 8.551,-1.198 12.313,-2.717 3.626,-1.464 6.632,-6.436 10.681,-6.687 3.886,-0.24 7.47,4.272 11.423,5.327 3.87,1.033 8.655,-2.209 12.24,-1.376 3.975,0.925 6.619,5.893 10.056,6.972 3.958,1.243 9.327,-1.023 12.287,1.026 3.124,2.163 2.472,7.54 4.138,11.339 1.331,3.036 6.183,5.776 6.378,10.292"
         id="path20442"
         inkscape:connector-curvature="0"
         style="fill:#d8d1c9" />
      <path
         d="m 942.119,617.188 c 0.028,3.905 -4.94,6.661 -6.729,10.083 -1.713,3.275 -0.9,8.845 -3.904,11.475 -2.776,2.43 -8.33,1.049 -11.908,2.765 -3.367,1.614 -5.654,6.844 -9.482,7.692 -3.681,0.816 -7.971,-2.926 -11.861,-2.937 -3.942,-0.012 -8.345,3.64 -12.064,2.709 -3.841,-0.961 -6.008,-6.288 -9.375,-8.063 -3.541,-1.868 -9.184,-0.731 -11.926,-3.307 -2.945,-2.765 -2.018,-8.373 -3.708,-11.718 -1.784,-3.532 -6.769,-6.374 -6.759,-10.274 0.011,-3.904 4.994,-6.581 6.8,-9.944 1.738,-3.238 0.989,-8.793 4.018,-11.357 2.792,-2.363 8.303,-0.875 11.892,-2.528 3.362,-1.548 5.687,-6.74 9.505,-7.553 3.658,-0.78 7.917,2.98 11.785,2.973 3.925,-0.007 8.266,-3.714 11.961,-2.847 3.841,0.901 6.064,6.18 9.425,7.886 3.55,1.802 9.156,0.58 11.899,3.115 2.934,2.712 2.005,8.293 3.686,11.644 1.74,3.467 6.717,6.259 6.745,10.186"
         id="path20444"
         inkscape:connector-curvature="0"
         style="fill:#ffffff" />
      <path
         d="m 871.484,623.242 c -1.066,-13.589 3.612,-25.226 20.883,-26.181 13.818,-0.763 25.709,7.43 26.562,18.301 0.682,8.697 -7.726,16.242 -18.779,16.853 -8.843,0.489 -16.453,-4.755 -16.999,-11.712 -0.436,-5.566 4.945,-10.395 12.018,-10.786 5.66,-0.313 10.531,3.043 10.88,7.496 0.279,3.562 -3.164,6.652 -7.692,6.903 -3.623,0.2 -6.74,-1.948 -6.964,-4.798 -0.177,-2.28 2.026,-4.258 4.924,-4.418 2.318,-0.128 4.313,1.247 4.456,3.071"
         id="path20446"
         inkscape:connector-curvature="0"
         style="fill-opacity:0;stroke:#ed89b4;stroke-width:2.96300006;stroke-linecap:round" />
      <path
         d="m 887.207,487.408 c 0.171,3.976 -4.789,6.93 -6.659,10.501 -1.748,3.337 -1.001,8.995 -4.094,11.744 -2.841,2.524 -8.518,1.291 -12.151,3.134 -3.453,1.752 -5.716,7.087 -9.595,8.068 -3.809,0.963 -8.314,-2.641 -12.264,-2.567 -3.928,0.075 -8.493,3.684 -12.474,2.614 -3.865,-1.038 -6.088,-6.462 -9.622,-8.418 -3.574,-1.978 -9.373,-1.018 -12.223,-3.771 -2.973,-2.873 -2.087,-8.579 -3.839,-12.114 -1.794,-3.618 -6.837,-6.573 -6.884,-10.688 -0.047,-4.168 4.873,-7.203 6.503,-10.722 1.67,-3.605 0.788,-9.271 3.786,-11.957 2.914,-2.609 8.551,-1.198 12.313,-2.717 3.626,-1.464 6.632,-6.436 10.681,-6.687 3.886,-0.24 7.47,4.272 11.423,5.327 3.87,1.033 8.655,-2.209 12.24,-1.376 3.975,0.925 6.619,5.893 10.056,6.972 3.958,1.243 9.327,-1.023 12.287,1.026 3.124,2.163 2.472,7.54 4.138,11.339 1.331,3.036 6.183,5.776 6.378,10.292"
         id="path20448"
         inkscape:connector-curvature="0"
         style="fill:#d8d1c9" />
      <path
         d="m 886.119,482.188 c 0.028,3.905 -4.94,6.661 -6.729,10.083 -1.713,3.275 -0.9,8.845 -3.904,11.475 -2.776,2.43 -8.33,1.049 -11.908,2.765 -3.367,1.614 -5.654,6.844 -9.482,7.692 -3.681,0.816 -7.971,-2.926 -11.861,-2.937 -3.942,-0.012 -8.345,3.64 -12.064,2.709 -3.841,-0.961 -6.008,-6.288 -9.375,-8.063 -3.541,-1.868 -9.184,-0.731 -11.926,-3.307 -2.945,-2.765 -2.018,-8.373 -3.708,-11.718 -1.784,-3.532 -6.769,-6.374 -6.759,-10.274 0.011,-3.904 4.994,-6.581 6.8,-9.944 1.738,-3.238 0.989,-8.793 4.018,-11.357 2.792,-2.363 8.303,-0.875 11.892,-2.528 3.362,-1.548 5.687,-6.74 9.505,-7.553 3.658,-0.78 7.917,2.98 11.785,2.973 3.925,-0.007 8.266,-3.714 11.961,-2.847 3.841,0.901 6.064,6.18 9.425,7.886 3.55,1.802 9.156,0.58 11.899,3.115 2.934,2.712 2.005,8.293 3.686,11.644 1.74,3.467 6.717,6.259 6.745,10.186"
         id="path20450"
         inkscape:connector-curvature="0"
         style="fill:#ffffff" />
      <path
         d="m 815.484,488.242 c -1.066,-13.589 3.612,-25.226 20.883,-26.181 13.818,-0.763 25.709,7.43 26.562,18.301 0.682,8.697 -7.726,16.242 -18.779,16.853 -8.843,0.489 -16.453,-4.755 -16.999,-11.712 -0.436,-5.566 4.945,-10.395 12.018,-10.786 5.66,-0.313 10.531,3.043 10.88,7.496 0.279,3.562 -3.164,6.652 -7.692,6.903 -3.623,0.2 -6.74,-1.948 -6.964,-4.798 -0.177,-2.28 2.026,-4.258 4.924,-4.418 2.318,-0.128 4.313,1.247 4.456,3.071"
         id="path20452"
         inkscape:connector-curvature="0"
         style="fill-opacity:0;stroke:#ed89b4;stroke-width:2.96300006;stroke-linecap:round" />
      <path
         d="m 844.115,375.15 c -0.944,-1.725 -1.899,-3.437 -2.861,-5.14 -0.119,-0.212 -0.206,-0.442 -0.259,-0.679 -1.561,-6.959 -4.707,-12.539 -9.56,-16.322 -0.193,-0.151 -0.394,-0.289 -0.591,-0.433 C 758.343,237.87 643.221,184.439 571.579,219.583 c -6.891,-4.819 -15.272,-7.655 -24.321,-7.655 -23.472,0 -42.5,19.028 -42.5,42.5 0,12.129 5.09,23.062 13.239,30.806 -22.354,64.917 -10.023,162.689 38.509,257.489 25.641,50.087 57.866,92.451 92.252,124.205 -0.08,-0.633 -0.149,-1.265 -0.221,-1.898 25.425,11.964 76.226,-18.328 117.475,-71.246 37.839,-48.543 55.252,-100.233 44.127,-125.227 -0.366,-0.821 -0.318,-1.767 0.17,-2.522 20.502,-31.73 31.864,-62.902 31.855,-85.322 -10e-4,-0.859 0.409,-1.662 1.115,-2.152 0.01,-0.007 0.021,-0.014 0.031,-0.022 1.093,-0.758 1.444,-2.222 0.805,-3.389"
         id="path20454"
         inkscape:connector-curvature="0"
         style="fill:#c5b9b5" />
      <path
         d="m 844.115,375.15 c -0.944,-1.725 -1.899,-3.437 -2.861,-5.14 -0.119,-0.212 -0.206,-0.442 -0.259,-0.679 -1.561,-6.959 -4.707,-12.539 -9.56,-16.322 -0.193,-0.151 -0.394,-0.289 -0.591,-0.433 C 758.343,237.87 643.221,184.439 571.579,219.583 c -6.891,-4.819 -15.272,-7.655 -24.321,-7.655 -23.472,0 -42.5,19.028 -42.5,42.5 0,12.129 5.09,23.062 13.239,30.806 -22.354,64.917 -10.023,162.689 38.509,257.489 25.641,50.087 57.866,92.451 92.252,124.205 -0.08,-0.633 -0.149,-1.265 -0.221,-1.898 25.425,11.964 76.226,-18.328 117.475,-71.246 37.839,-48.543 55.252,-100.233 44.127,-125.227 -0.366,-0.821 -0.318,-1.767 0.17,-2.522 20.502,-31.73 31.864,-62.902 31.855,-85.322 -10e-4,-0.859 0.409,-1.662 1.115,-2.152 0.01,-0.007 0.021,-0.014 0.031,-0.022 1.093,-0.758 1.444,-2.222 0.805,-3.389 z"
         id="path20456"
         inkscape:connector-curvature="0"
         style="fill-opacity:0;stroke:#5b5a59;stroke-width:2" />
      <path
         d="m 1006.727,710.266 -6.868,-0.026 C 983.335,743.013 905.93,764.812 801.844,764.012 704.055,763.261 623.842,745.61 608.168,713.628 l 23.31,227.473 1.313,0.024 c -0.023,0.27 -0.056,0.54 -0.071,0.811 -1.973,36.527 74.912,68.593 172.866,70.839 99.183,2.275 178.607,-26.89 176.317,-64.323 -0.017,-0.278 -0.053,-0.554 -0.079,-0.832 l 2.167,0.041 z"
         id="path20458"
         inkscape:connector-curvature="0"
         style="fill:#ee5d35" />
      <path
         d="m 733.668,809.148 c 5.569,-7.051 4.871,-17.929 -0.084,-25.138 -4.513,-6.567 -12.524,-10.165 -20.233,-11.182 -18.603,-2.454 -25.335,19.853 -26.002,34.164 -0.799,17.137 4.501,36.822 17.448,48.793 12.428,11.491 30.181,3.733 33.705,-11.989 0.967,-4.316 1.312,-10.042 -1.794,-13.682 -2.905,-3.403 -6.16,0.551 -6.841,3.588 -1.681,7.502 -11.415,9.388 -17.48,6.431 -8.298,-4.045 -13.188,-15.689 -14.666,-24.23 -1.339,-7.735 -0.415,-17.063 6.857,-21.52 3.948,-2.419 9.197,-1.919 13.398,-0.539 2.465,0.809 4.73,2.147 6.891,3.553 0.774,0.449 1.446,1.015 2.015,1.699 4.236,4.255 -4.863,1.141 1.739,-7.217 -2.879,3.644 -3.05,9.394 -1.794,13.681 0.81,2.765 3.94,7.261 6.841,3.588"
         id="path20460"
         inkscape:connector-curvature="0"
         style="fill:#eeee59" />
      <path
         d="m 766.206,790.875 c -3.635,15.916 -3.297,32.275 1.759,47.863 4.279,13.193 12.311,27.982 26.979,31.008 13.868,2.86 26.021,-9.901 30.72,-21.421 6.654,-16.309 5.659,-35.665 2.517,-52.65 -0.447,-2.414 -2.208,-9.153 -6.151,-6.985 -3.685,2.028 -4.15,8.744 -3.492,12.302 2.036,11.007 3.257,22.802 -0.164,33.651 -2.955,9.371 -12.338,15.772 -22.036,15.279 -9.895,-0.503 -16.107,-11.598 -19.186,-19.708 -3.526,-9.288 -4.531,-19.524 -2.311,-29.245 0.983,-4.306 1.304,-10.052 -1.794,-13.681 -2.911,-3.411 -6.149,0.558 -6.841,3.587"
         id="path20462"
         inkscape:connector-curvature="0"
         style="fill:#eeee59" />
      <path
         d="m 876.173,808.14 c 8.062,-2.752 16.583,-2.992 25.025,-2.995 3.508,-0.002 6.992,0.026 10.474,0.483 1.727,0.228 6.26,1.461 6.79,2.927 -1.402,-3.878 0.681,-4.785 -0.842,-2.599 -1.102,1.583 -2.568,2.526 -4.197,3.495 -3.154,1.877 -6.857,2.622 -10.414,3.28 -8.397,1.552 -16.881,2.717 -25.314,4.065 1.18,5.69 2.357,11.381 3.537,17.071 l 0.401,-0.833 c -0.736,0.859 -1.472,1.716 -2.206,2.573 l -0.096,-0.178 c 6.706,3.362 8.669,-16.273 2.657,-19.286 -3.535,-1.773 -6.251,0.313 -7.828,3.581 -1.435,2.974 -1.732,6.492 -1.285,9.731 0.272,1.985 1.651,7.847 4.82,7.341 11.331,-1.812 23.206,-2.797 34.183,-6.241 11.711,-3.672 17.067,-15.602 16.096,-27.198 -0.942,-11.233 -8.383,-17.055 -19.073,-18.039 -11.656,-1.071 -24.288,-0.253 -35.385,3.536 -6.135,2.094 -4.842,21.844 2.657,19.286"
         id="path20464"
         inkscape:connector-curvature="0"
         style="fill:#eeee59" />
      <path
         d="m 865.082,808.042 c 3.595,15.217 6.02,30.662 7.482,46.226 0.549,5.846 -0.459,15.076 5.409,18.549 3.039,1.799 5.457,-2.655 6.09,-4.816 1.287,-4.393 0.87,-8.928 -0.884,-13.111 -0.432,-1.028 -2.058,-3.293 -3.536,-2.929 -0.122,0.03 -0.245,0.061 -0.367,0.091 -7.275,1.794 -5.922,21.46 0,20 0.122,-0.03 0.245,-0.061 0.367,-0.091 -1.178,-0.976 -2.357,-1.952 -3.535,-2.929 0.062,0.149 0.124,0.297 0.186,0.445 -0.429,-3.243 -0.857,-6.486 -1.286,-9.729 -0.028,0.182 -0.056,0.365 -0.084,0.548 l 3.493,-6.985 c -0.148,0.074 -0.296,0.147 -0.444,0.221 h 2.659 c -0.228,-0.135 -0.456,-0.269 -0.683,-0.404 0.735,0.857 1.471,1.714 2.206,2.572 0.844,4.365 1.063,4.637 0.656,0.813 -0.086,-1.261 -0.18,-2.522 -0.281,-3.782 -0.194,-2.522 -0.438,-5.039 -0.688,-7.555 -0.501,-5.033 -1.155,-10.049 -1.878,-15.054 -1.562,-10.814 -3.735,-21.543 -6.247,-32.174 -0.713,-3.015 -3.919,-7.011 -6.841,-3.588 -3.083,3.612 -2.807,9.393 -1.794,13.682"
         id="path20466"
         inkscape:connector-curvature="0"
         style="fill:#eeee59" />
      <path
         d="m 663.88,903.169 c 12.613,-5.278 31.856,0.252 36.863,14.028 0.598,-4.561 1.196,-9.121 1.794,-13.682 -3.695,5.241 -9.799,6.677 -15.827,7.633 -8.569,1.358 -17.246,2.208 -25.853,3.296 0.841,6.211 1.682,12.423 2.523,18.634 0.998,-0.979 1.997,-1.959 2.995,-2.939 4.503,-4.42 1.501,-23.696 -5.047,-17.269 -0.998,0.979 -1.997,1.959 -2.995,2.939 -2.643,2.594 -2.758,7.946 -2.298,11.293 0.285,2.073 1.624,7.746 4.822,7.342 11.389,-1.44 23.17,-2.123 34.275,-5.138 4.582,-1.244 8.56,-3.792 11.649,-7.382 5.101,-5.928 3.385,-13.941 0.354,-20.348 -7.912,-16.726 -28.974,-24.782 -45.913,-17.693 -6.104,2.555 -4.475,22.271 2.658,19.286"
         id="path20468"
         inkscape:connector-curvature="0"
         style="fill:#eeee59" />
      <path
         d="m 654.139,897.367 c -0.85,13.114 -1.047,26.235 -0.354,39.361 0.308,5.832 -0.82,31.584 9.872,28.378 5.158,-1.547 4.131,-13.413 2.206,-16.714 -0.071,-0.122 -0.142,-0.244 -0.214,-0.367 -1.994,-3.42 -5.153,-3.835 -7.071,0 -1.966,3.933 -2.272,10.246 0,14.142 0.072,0.123 0.143,0.245 0.214,0.367 0.736,-5.571 1.471,-11.142 2.207,-16.714 0.35,-0.149 0.701,-0.298 1.052,-0.447 0.735,0.857 1.471,1.714 2.206,2.571 2.074,3.986 0.425,-0.726 0.278,-2.102 -0.277,-2.61 -0.482,-5.226 -0.678,-7.843 -0.326,-4.346 -0.41,-8.72 -0.489,-13.075 -0.166,-9.191 0.176,-18.387 0.771,-27.557 0.183,-2.823 -0.954,-10 -5,-10 -4.293,0 -4.816,7.168 -5,10"
         id="path20470"
         inkscape:connector-curvature="0"
         style="fill:#eeee59" />
      <path
         d="m 678.561,932.935 c 8.337,14.554 17.815,28.403 28.446,41.376 2.949,3.599 6.012,-0.755 6.841,-3.587 1.237,-4.224 1.132,-10.113 -1.793,-13.682 -9.855,-12.025 -18.694,-24.757 -26.423,-38.249 -1.975,-3.447 -5.165,-3.812 -7.071,0 -1.979,3.957 -2.249,10.216 0,14.142"
         id="path20472"
         inkscape:connector-curvature="0"
         style="fill:#eeee59" />
      <path
         d="m 727.113,977.543 c 0.125,0.018 0.251,0.035 0.376,0.053 -1.667,-3.334 -3.334,-6.667 -5,-10 -0.004,0.206 -0.008,0.412 -0.012,0.619 1.223,-3.215 2.447,-6.429 3.67,-9.643 l -0.475,0.259 c 1.285,0.336 2.569,0.672 3.853,1.008 -0.215,-0.267 -0.43,-0.533 -0.645,-0.8 0.826,2.878 1.651,5.756 2.477,8.635 -0.049,-4.367 1.465,-9.306 2.197,-13.616 0.852,-5.017 1.791,-10.019 2.769,-15.013 0.943,-4.82 1.981,-9.619 3.061,-14.41 0.537,-2.385 1.571,-10.751 3.163,-11.367 -1.622,-0.858 -3.244,-1.715 -4.865,-2.572 12.353,23.382 24.706,46.765 37.059,70.147 1.883,3.566 5.216,3.71 7.071,0 2.031,-4.064 2.14,-10.09 0,-14.142 -12.353,-23.383 -24.706,-46.765 -37.059,-70.147 -1.043,-1.974 -2.553,-3.468 -4.865,-2.572 -5.627,2.181 -6.626,9.877 -7.845,14.982 -1.813,7.597 -3.441,15.238 -4.991,22.893 -1.514,7.481 -2.851,14.998 -4.081,22.531 -1.208,7.397 -3.664,16.303 1.507,22.721 0.94,1.167 2.455,1.771 3.853,1.008 l 0.475,-0.259 c 3.1,-1.692 3.61,-6.58 3.671,-9.643 0.004,-0.207 0.008,-0.413 0.012,-0.619 0.065,-3.311 -0.856,-9.421 -5,-10 -0.125,-0.018 -0.251,-0.035 -0.376,-0.053 -6.467,-0.904 -7.264,18.985 0,20"
         id="path20474"
         inkscape:connector-curvature="0"
         style="fill:#eeee59" />
      <path
         d="m 727.468,963.411 c 12.284,7.157 26.767,7.981 39.895,2.669 6.113,-2.473 4.542,-22.199 -2.659,-19.285 -11.388,4.607 -24.011,3.488 -34.578,-2.67 -6.272,-3.655 -8.528,15.865 -2.658,19.286"
         id="path20476"
         inkscape:connector-curvature="0"
         style="fill:#eeee59" />
      <path
         d="m 785.676,906.059 c 3.845,24.024 7.69,48.047 11.535,72.071 0.39,2.439 2.244,9.133 6.15,6.984 3.74,-2.057 4.068,-8.707 3.492,-12.301 -3.845,-24.024 -7.689,-48.047 -11.534,-72.071 -0.391,-2.439 -2.244,-9.133 -6.151,-6.984 -3.74,2.057 -4.067,8.707 -3.492,12.301"
         id="path20478"
         inkscape:connector-curvature="0"
         style="fill:#eeee59" />
      <path
         d="m 787.173,915.246 c 9.062,12.449 18.124,24.899 27.186,37.348 2.771,3.807 6.108,-0.941 6.841,-3.587 3.78,-13.652 10.218,-26.114 19.097,-37.149 l -7.524,-8.634 c 0.503,24.577 2.724,49.091 6.783,73.337 0.407,2.432 2.233,9.14 6.151,6.985 3.724,-2.049 4.092,-8.718 3.492,-12.302 -3.769,-22.511 -5.959,-45.2 -6.426,-68.02 -0.056,-2.721 -2.849,-14.445 -7.523,-8.635 -10.541,13.1 -18.198,28.121 -22.685,44.323 2.28,-1.195 4.56,-2.391 6.841,-3.587 -9.062,-12.45 -18.124,-24.899 -27.186,-37.348 -2.789,-3.833 -6.075,0.971 -6.841,3.587 -1.296,4.425 -0.977,9.876 1.794,13.682"
         id="path20480"
         inkscape:connector-curvature="0"
         style="fill:#eeee59" />
      <path
         d="m 870.74,923.286 c 11.121,-3.84 22.715,-7.121 32.84,-13.26 5.823,-3.53 3.488,-23.012 -2.658,-19.286 -10.126,6.139 -21.719,9.42 -32.84,13.26 -6.134,2.119 -4.823,21.869 2.658,19.286"
         id="path20482"
         inkscape:connector-curvature="0"
         style="fill:#eeee59" />
      <path
         d="m 863.14,918.469 c 2.935,14.443 6.033,29.018 6.911,43.765 0.247,4.144 -0.766,17.938 6.279,17.938 7.265,0 5.755,-14.398 3.756,-18.201 -0.969,-1.843 -2.628,-3.632 -4.865,-2.572 -0.103,0.049 -0.205,0.097 -0.308,0.146 -6.048,2.866 -4.192,22.532 2.658,19.286 0.103,-0.049 0.206,-0.098 0.308,-0.146 l -4.864,-2.572 c 0.069,0.133 0.139,0.265 0.209,0.398 l -1.464,-7.071 c -0.01,0.173 -0.019,0.345 -0.028,0.518 1.224,-3.214 2.447,-6.428 3.671,-9.643 -0.134,0.072 -0.268,0.143 -0.402,0.214 h 2.659 c -0.218,-0.132 -0.436,-0.263 -0.654,-0.395 0.736,0.857 1.471,1.715 2.207,2.572 2.534,6.061 0.969,2.292 0.838,-0.472 -0.134,-2.839 -0.361,-5.676 -0.595,-8.508 -0.376,-4.55 -0.99,-9.078 -1.657,-13.593 -1.339,-9.049 -3.195,-18.019 -5.016,-26.981 -0.487,-2.395 -2.182,-9.167 -6.151,-6.984 -3.646,2.006 -4.209,8.771 -3.492,12.301"
         id="path20484"
         inkscape:connector-curvature="0"
         style="fill:#eeee59" />
      <path
         d="m 875.336,954.122 c 7.266,0.063 14.367,-1.718 20.769,-5.151 -0.886,-6.429 -1.772,-12.857 -2.657,-19.286 -3.125,1.839 -4.471,4.511 -5.698,7.838 -1.461,3.966 -1.042,10.36 1.794,13.682 3.099,3.632 5.823,-0.823 6.841,-3.587 0.125,-0.341 0.251,-0.683 0.376,-1.024 -0.597,1.196 -1.195,2.392 -1.792,3.587 0.195,-0.6 0.575,-1.004 1.136,-1.21 5.692,-3.348 3.96,-22.834 -2.657,-19.286 -5.722,3.069 -11.62,4.493 -18.112,4.437 -6.974,-0.061 -7.024,19.939 0,20"
         id="path20486"
         inkscape:connector-curvature="0"
         style="fill:#eeee59" />
      <path
         d="m 876.638,981.737 c 9.802,2.373 19.576,-1.191 26.452,-8.348 3.107,-3.234 2.95,-9.734 1.793,-13.681 -0.917,-3.132 -3.701,-6.856 -6.84,-3.588 -5.608,5.836 -13.697,7.484 -21.405,5.617 -5.946,-1.44 -7.277,18.238 0,20"
         id="path20488"
         inkscape:connector-curvature="0"
         style="fill:#eeee59" />
      <path
         d="m 914.945,909.25 c 2.767,18.464 4.886,37.04 6.133,55.671 0.189,2.831 0.703,10 5,10 4.042,0 5.189,-7.178 5,-10 -1.366,-20.419 -3.457,-40.747 -6.49,-60.988 -0.367,-2.449 -2.259,-9.125 -6.151,-6.984 -3.762,2.07 -4.033,8.693 -3.492,12.301"
         id="path20490"
         inkscape:connector-curvature="0"
         style="fill:#eeee59" />
      <path
         d="m 917.05,906.802 c -1.563,11.839 5.067,20.079 11.071,29.532 l 16.974,26.722 c 3.948,6.216 7.396,0.325 8.357,-4.413 3.908,-19.271 6.591,-38.74 8.04,-58.351 0.274,-3.707 0.44,-10.137 -3.492,-12.301 -3.779,-2.079 -5.964,4.468 -6.15,6.985 -1.45,19.61 -4.133,39.079 -8.041,58.351 2.786,-1.471 5.572,-2.942 8.357,-4.413 -4.243,-6.681 -8.487,-13.361 -12.73,-20.042 -2.122,-3.34 -4.244,-6.68 -6.365,-10.021 -1.061,-1.67 -2.122,-3.34 -3.183,-5.01 -0.707,-1.113 -1.415,-2.227 -2.122,-3.34 -1.131,-2.499 -1.489,-1.96 -1.073,1.618 0.479,-3.633 0.31,-10.21 -3.492,-12.301 -3.866,-2.127 -5.826,4.518 -6.151,6.984"
         id="path20492"
         inkscape:connector-curvature="0"
         style="fill:#eeee59" />
      <path
         d="m 790.758,75.396 c 0,0 0.08,0.01 0.236,0.028 0.173,0.039 0.431,0.097 0.771,0.174 0.645,0.14 1.591,0.38 2.783,0.799 2.393,0.823 5.815,2.358 9.856,5.249 4.036,2.877 8.737,7.118 13.267,13.335 4.586,6.147 9.004,14.293 12.381,24.188 3.351,9.879 5.518,21.46 6.058,33.631 0.584,12.169 -0.491,24.898 -3.402,36.941 -0.729,3.013 -1.489,6.042 -2.488,8.906 -0.941,2.897 -1.892,5.862 -3.039,8.621 -1.16,2.766 -2.267,5.605 -3.536,8.292 -1.273,2.674 -2.595,5.32 -3.906,7.97 -1.348,2.609 -2.782,5.116 -4.174,7.669 -1.364,2.584 -2.852,5.013 -4.296,7.474 l -2.165,3.69 -1.063,1.857 c 0.501,-1.077 0.104,-0.238 0.199,-0.45 l -0.061,0.106 -0.122,0.213 -0.245,0.426 -0.49,0.852 c -1.318,2.264 -2.562,4.586 -3.847,6.878 -0.346,0.613 -0.579,1.091 -0.812,1.568 l -0.723,1.457 -1.465,2.918 c -1.019,1.876 -1.915,4.056 -2.844,6.181 l -1.398,3.193 c -0.456,1.067 -0.807,2.154 -1.235,3.224 -0.795,2.15 -1.736,4.29 -2.362,6.464 -2.892,8.665 -4.98,17.422 -5.861,26.082 -0.977,8.657 -0.732,17.2 0.446,25.318 1.171,8.122 3.435,15.728 6.147,22.54 2.733,6.801 5.87,12.867 9.024,17.962 3.156,5.098 6.251,9.315 8.894,12.714 2.656,3.387 4.904,5.878 6.441,7.62 1.593,1.771 2.442,2.716 2.442,2.716 l -2.518,4.829 c 0,0 -1.003,-0.563 -2.883,-1.618 -1.931,-1.094 -4.752,-2.809 -8.277,-5.262 -3.53,-2.446 -7.729,-5.714 -12.29,-10.102 -4.551,-4.388 -9.554,-9.829 -14.351,-16.854 -2.421,-3.485 -4.73,-7.412 -6.99,-11.67 -1.074,-2.168 -2.135,-4.425 -3.179,-6.754 -0.483,-1.196 -0.969,-2.401 -1.459,-3.615 -0.491,-1.22 -0.996,-2.448 -1.404,-3.741 -3.61,-10.172 -6.035,-21.955 -6.869,-34.35 -0.781,-12.395 0.028,-25.304 2.252,-37.735 0.455,-3.185 1.202,-6.172 1.847,-9.271 0.34,-1.533 0.663,-3.1 1.054,-4.603 l 1.229,-4.482 c 0.829,-2.996 1.614,-5.993 2.687,-9.053 l 1.527,-4.578 0.773,-2.293 c 0.261,-0.777 0.523,-1.551 0.751,-2.136 0.923,-2.56 1.889,-5.089 2.778,-7.672 l 0.337,-0.965 0.169,-0.483 0.085,-0.241 0.042,-0.12 c 0.13,-0.289 -0.233,0.475 0.303,-0.678 l 0.605,-1.764 1.168,-3.543 c 1.624,-4.689 2.79,-9.49 4.03,-14.145 0.536,-2.346 1.055,-4.675 1.614,-6.952 0.477,-2.267 0.952,-4.523 1.424,-6.766 0.571,-2.198 0.858,-4.39 1.362,-6.506 0.21,-1.065 0.488,-2.123 0.68,-3.161 0.186,-1.042 0.405,-2.066 0.617,-3.088 1.713,-8.149 3.433,-15.588 4.733,-22.693 1.275,-7.097 2.12,-13.851 2.482,-20.373 0.344,-6.503 0.195,-12.783 -0.267,-18.689 -0.5,-5.871 -1.35,-11.311 -2.288,-15.91 -0.936,-4.597 -1.922,-8.374 -2.639,-10.994 -0.375,-1.314 -0.663,-2.322 -0.856,-3.001 -0.087,-0.329 -0.153,-0.579 -0.197,-0.746 -0.064,-0.181 -0.096,-0.273 -0.096,-0.273 z"
         id="path20494"
         inkscape:connector-curvature="0"
         style="fill:#e7e6bf" />
      <path
         d="m 924.338,169.558 c 0,0 -0.032,0.092 -0.096,0.272 -0.044,0.168 -0.11,0.417 -0.197,0.747 -0.194,0.679 -0.481,1.687 -0.856,3.001 -0.717,2.619 -1.703,6.396 -2.64,10.994 -0.937,4.599 -1.787,10.039 -2.287,15.91 -0.462,5.906 -0.611,12.185 -0.267,18.689 0.362,6.522 1.207,13.275 2.482,20.373 1.3,7.105 3.02,14.544 4.733,22.693 0.211,1.022 0.431,2.045 0.617,3.088 0.192,1.037 0.47,2.096 0.68,3.161 0.504,2.116 0.791,4.308 1.362,6.506 0.472,2.242 0.947,4.498 1.424,6.766 0.559,2.277 1.078,4.605 1.614,6.952 1.24,4.655 2.406,9.456 4.03,14.145 l 1.168,3.543 0.605,1.764 c 0.536,1.153 0.173,0.389 0.303,0.677 l 0.042,0.121 0.085,0.241 0.168,0.483 0.338,0.965 c 0.889,2.583 1.854,5.112 2.778,7.672 0.228,0.584 0.49,1.359 0.751,2.136 l 0.773,2.293 1.526,4.577 c 1.074,3.06 1.859,6.058 2.687,9.054 l 1.229,4.482 c 0.392,1.503 0.715,3.07 1.055,4.603 0.645,3.099 1.392,6.086 1.847,9.27 2.224,12.432 3.033,25.341 2.252,37.736 -0.834,12.395 -3.26,24.177 -6.869,34.349 -0.409,1.294 -0.913,2.522 -1.404,3.741 -0.49,1.214 -0.976,2.42 -1.459,3.616 -1.044,2.329 -2.105,4.586 -3.179,6.754 -2.26,4.258 -4.569,8.185 -6.99,11.67 -4.797,7.025 -9.8,12.466 -14.351,16.854 -4.562,4.388 -8.76,7.656 -12.29,10.102 -3.525,2.453 -6.347,4.168 -8.277,5.261 -1.88,1.056 -2.883,1.619 -2.883,1.619 l -2.518,-4.829 c 0,0 0.849,-0.945 2.442,-2.717 1.537,-1.741 3.785,-4.232 6.44,-7.62 2.643,-3.398 5.739,-7.615 8.895,-12.713 3.154,-5.095 6.291,-11.161 9.024,-17.962 2.711,-6.812 4.976,-14.418 6.147,-22.54 1.178,-8.118 1.423,-16.662 0.446,-25.318 -0.881,-8.661 -2.969,-17.417 -5.861,-26.082 -0.626,-2.175 -1.567,-4.314 -2.362,-6.464 -0.428,-1.07 -0.779,-2.158 -1.235,-3.224 l -1.399,-3.193 c -0.928,-2.125 -1.824,-4.305 -2.843,-6.181 l -1.465,-2.919 -0.723,-1.456 c -0.233,-0.477 -0.466,-0.955 -0.812,-1.569 -1.285,-2.291 -2.529,-4.613 -3.847,-6.877 l -0.49,-0.852 -0.245,-0.426 -0.122,-0.213 -0.062,-0.107 c 0.096,0.213 -0.301,-0.626 0.2,0.451 l -1.063,-1.857 -2.165,-3.69 c -1.444,-2.462 -2.932,-4.89 -4.296,-7.474 -1.392,-2.553 -2.826,-5.06 -4.174,-7.67 -1.311,-2.649 -2.633,-5.296 -3.906,-7.969 -1.269,-2.688 -2.376,-5.526 -3.536,-8.293 -1.147,-2.758 -2.098,-5.723 -3.039,-8.62 -0.999,-2.865 -1.759,-5.893 -2.488,-8.906 -2.911,-12.044 -3.987,-24.772 -3.403,-36.941 0.541,-12.171 2.708,-23.752 6.058,-33.631 3.378,-9.895 7.796,-18.041 12.382,-24.188 4.529,-6.218 9.231,-10.458 13.267,-13.335 4.041,-2.891 7.463,-4.426 9.856,-5.249 1.192,-0.419 2.138,-0.659 2.783,-0.799 0.34,-0.077 0.598,-0.135 0.771,-0.174 0.156,-0.019 0.236,-0.028 0.236,-0.028 z"
         id="path20496"
         inkscape:connector-curvature="0"
         style="fill:#e7e6bf" />
    </g>
  </g>
</svg>
